<svg width="300" height="77" viewBox="0 0 300 77" fill="none" xmlns="http://www.w3.org/2000/svg">
<path d="M235.213 29.36V19.1344H231.75V17.9068H235.213V12.75H236.69V17.9068H240.75V19.1344H236.69V29.256C236.69 30.8181 237.647 31.7551 239.239 31.7551H240.75V33H239.052C236.796 33 235.213 31.6805 235.213 29.36Z" fill="#40B56A"/>
<path d="M245.298 24.0333H255.686C255.565 20.3145 253.877 18.4919 250.705 18.4919C247.573 18.4919 245.6 20.4231 245.298 24.0333ZM245.244 25.247C245.244 29.5869 247.417 31.6951 250.705 31.6951C253.38 31.6951 254.809 30.1635 255.66 27.8193L257.074 28.3222C256.02 31.1291 254.025 33 250.73 33C246.381 33 243.75 30.071 243.75 25.1116C243.75 20.2018 246.425 17.25 250.705 17.25C254.897 17.25 257.25 19.8585 257.25 24.7428L257.211 25.247H245.244Z" fill="#40B56A"/>
<path d="M261 25.129C261 20.37 263.741 17.25 267.683 17.25C270.848 17.25 273.343 19.2027 273.75 22.379L272.339 22.7984C272.066 20.1797 270.132 18.5781 267.683 18.5781C264.569 18.5781 262.479 21.1232 262.479 25.1317C262.479 29.1349 264.569 31.696 267.683 31.696C270.124 31.696 272.083 30.0878 272.328 27.4543L273.75 27.8791C273.343 31.0688 270.87 33 267.683 33C263.741 32.9973 261 29.9001 261 25.129Z" fill="#40B56A"/>
<path d="M291 22.8996V33H289.434V23.2459C289.434 20.2426 287.453 19.0318 285.179 19.0318C282.539 19.0318 280.571 20.6207 280.571 23.4707V33H279V11.25H280.571V20.2202C281.533 18.6432 283.282 17.7232 285.446 17.7232C288.5 17.7232 291 19.5037 291 22.8996Z" fill="#40B56A"/>
<path d="M149.477 64.5C135.706 64.5 124.5 53.7276 124.5 40.4888C124.5 27.2605 135.706 16.5 149.477 16.5C158.284 16.5 166.52 21.0249 171 28.318L161.643 33.6156C159.111 29.5013 154.448 26.9391 149.477 26.9391C141.696 26.9391 135.363 33.0252 135.363 40.4888C135.363 47.963 141.696 54.0622 149.477 54.0622C154.443 54.0622 159.111 51.5105 161.643 47.3844L170.999 52.6807C166.516 59.9633 158.279 64.5 149.477 64.5Z" fill="#0596DF"/>
<path d="M90.7512 27.0576C83.0649 27.0576 76.808 33.2583 76.808 40.8777C76.808 48.4983 83.0649 54.6844 90.7512 54.6844C98.4376 54.6844 104.693 48.4997 104.693 40.8777C104.693 33.2583 98.4376 27.0576 90.7512 27.0576ZM90.7512 65.25C77.103 65.25 66 54.3098 66 40.8763C66 27.4229 77.1043 16.5 90.7512 16.5C104.397 16.5 115.5 27.4216 115.5 40.8763C115.5 54.3098 104.398 65.25 90.7512 65.25Z" fill="#0596DF"/>
<path d="M36.4875 49.0034L20.3834 18H8.25L31.6265 63H41.4046L64.5 18H52.389L36.4875 49.0034Z" fill="#0596DF"/>
<path d="M203.522 32.0203L219.61 63H231.75L208.383 18H198.611L175.5 63H187.628L203.522 32.0203Z" fill="#0596DF"/>
</svg>
